<svg width="14" height="12" viewBox="0 0 14 12" fill="none" xmlns="http://www.w3.org/2000/svg">
<path d="M0.00191044 11.3573L0.28077 7.84295C0.313037 7.45716 0.674861 7.29139 0.882317 7.56264L1.54143 8.42467L5.69219 2.99635C5.95262 2.65576 6.41125 2.65576 6.67168 2.99635L8.95792 5.98629L12.8206 0.93171C12.9543 0.756908 13.1317 0.666472 13.3092 0.666472C13.4866 0.666472 13.6641 0.756908 13.7978 0.93171C14.0674 1.28437 14.0674 1.85703 13.7978 2.21268L9.44652 7.90323C9.18609 8.24382 8.72745 8.24382 8.46933 7.90323L6.18078 4.91329L2.51861 9.70263L3.2907 10.7123C3.50041 10.9866 3.37367 11.4598 3.07866 11.499L0.391389 11.8637C0.167841 11.8969 -0.0211589 11.6497 0.00191044 11.3573Z" fill="#D04747"/>
</svg>
