<svg width="14" height="12" viewBox="0 0 14 12" fill="none" xmlns="http://www.w3.org/2000/svg">
<path d="M13.9981 1.17585L13.7192 4.69026C13.687 5.07605 13.3251 5.24182 13.1177 4.97056L12.4586 4.10853L8.30781 9.53685C8.04738 9.87744 7.58875 9.87744 7.32832 9.53685L5.04208 6.54691L1.17942 11.6015C1.04574 11.7763 0.868291 11.8667 0.690826 11.8667C0.51336 11.8667 0.335909 11.7763 0.202233 11.6015C-0.0674111 11.2488 -0.0674111 10.6762 0.202233 10.3205L4.55348 4.62997C4.81391 4.28938 5.27255 4.28938 5.53067 4.62997L7.81922 7.61991L11.4814 2.83057L10.7093 1.82087C10.4996 1.54658 10.6263 1.07339 10.9213 1.0342L13.6086 0.669495C13.8322 0.636345 14.0212 0.8835 13.9981 1.17585Z" fill="#008D16"/>
</svg>
