<svg width="30" height="31" viewBox="0 0 30 31" fill="none" xmlns="http://www.w3.org/2000/svg">
<g clip-path="url(#clip0_4805_54901)">
<path d="M23.75 2.76663H21.1348C20.876 2.04071 20.1887 1.51665 19.375 1.51665H17.4871C16.9 0.737815 15.9772 0.266602 15 0.266602C14.0228 0.266602 13.1 0.737815 12.5128 1.51659H10.625C9.81123 1.51659 9.12398 2.04065 8.86512 2.76657H6.25002C4.87119 2.76663 3.75 3.88783 3.75 5.2666V27.7667C3.75 29.1455 4.87119 30.2667 6.25002 30.2667H23.75C25.1288 30.2667 26.25 29.1455 26.25 27.7667V5.2666C26.25 3.88783 25.1288 2.76663 23.75 2.76663ZM9.375 26.5167C8.34105 26.5167 7.5 25.6757 7.5 24.6417C7.5 23.6078 8.34105 22.7667 9.375 22.7667C10.4089 22.7667 11.25 23.6078 11.25 24.6417C11.25 25.6757 10.4089 26.5167 9.375 26.5167ZM9.375 20.2667C8.34105 20.2667 7.5 19.4256 7.5 18.3917C7.5 17.3577 8.34105 16.5167 9.375 16.5167C10.4089 16.5167 11.25 17.3577 11.25 18.3917C11.25 19.4256 10.4089 20.2667 9.375 20.2667ZM9.375 14.0167C8.34105 14.0167 7.5 13.1756 7.5 12.1417C7.5 11.1077 8.34105 10.2667 9.375 10.2667C10.4089 10.2667 11.25 11.1077 11.25 12.1417C11.25 13.1756 10.4089 14.0167 9.375 14.0167ZM10 4.01662V3.3916C10 3.04677 10.2802 2.76657 10.625 2.76657H12.8467C13.0689 2.76657 13.2746 2.64815 13.3869 2.45591C13.7293 1.86751 14.3323 1.51659 15.0001 1.51659C15.6678 1.51659 16.2708 1.86757 16.6132 2.45591C16.7255 2.64815 16.9312 2.76657 17.1534 2.76657H19.3751C19.7199 2.76657 20.0001 3.04671 20.0001 3.3916V4.01662C20.0001 4.70568 19.4392 5.2666 18.7501 5.2666H11.25C10.5609 5.2666 10 4.70568 10 4.01662ZM21.875 25.2667H14.375C14.0295 25.2667 13.75 24.9872 13.75 24.6417C13.75 24.2962 14.0295 24.0167 14.375 24.0167H21.875C22.2204 24.0167 22.5 24.2962 22.5 24.6417C22.5 24.9872 22.2204 25.2667 21.875 25.2667ZM21.875 19.0167H14.375C14.0295 19.0167 13.75 18.7371 13.75 18.3917C13.75 18.0462 14.0295 17.7666 14.375 17.7666H21.875C22.2204 17.7666 22.5 18.0462 22.5 18.3917C22.5 18.7371 22.2204 19.0167 21.875 19.0167ZM21.875 12.7666H14.375C14.0295 12.7666 13.75 12.4871 13.75 12.1416C13.75 11.7961 14.0295 11.5166 14.375 11.5166H21.875C22.2204 11.5166 22.5 11.7961 22.5 12.1416C22.5 12.4871 22.2204 12.7666 21.875 12.7666Z" fill="#41B0DD"/>
</g>
<defs>
<clipPath id="clip0_4805_54901">
<rect width="30" height="30.0001" fill="white" transform="translate(0 0.266602)"/>
</clipPath>
</defs>
</svg>
