<svg width="30" height="31" viewBox="0 0 30 31" fill="none" xmlns="http://www.w3.org/2000/svg">
<g clip-path="url(#clip0_4805_54918)">
<path d="M8.69434 4.25091H21.5785V1.61865C21.5785 0.951783 21.0324 0.448242 20.4107 0.448242C20.2897 0.448242 20.1659 0.467306 20.0426 0.508005L8.69434 4.25091Z" fill="#AA7AE9"/>
<path d="M23.9179 6.00513H6.08261C5.43668 6.00513 4.91309 6.52872 4.91309 7.17466V22.6901V29.2787C4.91309 29.9247 5.43668 30.4483 6.08261 30.4483H23.9179C24.5638 30.4483 25.0874 29.9247 25.0874 29.2787V7.17466C25.0874 6.52878 24.5637 6.00513 23.9179 6.00513ZM9.15261 16.5498H9.40669C9.7848 14.129 11.7023 12.2115 14.1231 11.8334V11.3939C14.1231 10.9095 14.5158 10.5168 15.0002 10.5168C15.4847 10.5168 15.8774 10.9095 15.8774 11.3939V11.8334C18.2982 12.2115 20.2157 14.129 20.5938 16.5498H20.8479C21.3323 16.5498 21.725 16.9426 21.725 17.427C21.725 17.9114 21.3323 18.3041 20.8479 18.3041H9.15261C8.6682 18.3041 8.27547 17.9114 8.27547 17.427C8.27547 16.9426 8.66814 16.5498 9.15261 16.5498ZM14.5802 21.551C14.5802 22.0354 14.1875 22.4281 13.7031 22.4281H9.49277C9.00835 22.4281 8.61563 22.0354 8.61563 21.551C8.61563 21.0665 9.00835 20.6738 9.49277 20.6738H13.7031C14.1875 20.6738 14.5802 21.0665 14.5802 21.551ZM20.6286 25.9367H9.3719C8.88748 25.9367 8.49475 25.544 8.49475 25.0596C8.49475 24.5751 8.88748 24.1824 9.3719 24.1824H20.6286C21.113 24.1824 21.5057 24.5751 21.5057 25.0596C21.5057 25.544 21.113 25.9367 20.6286 25.9367Z" fill="#AA7AE9"/>
<path d="M18.8084 16.5499C18.4092 14.8164 16.8534 13.5198 15.0004 13.5198C13.1475 13.5198 11.5916 14.8164 11.1924 16.5499H18.8084Z" fill="#AA7AE9"/>
</g>
<defs>
<clipPath id="clip0_4805_54918">
<rect width="30" height="30.0001" fill="white" transform="translate(0 0.448242)"/>
</clipPath>
</defs>
</svg>
