<svg width="30" height="31" viewBox="0 0 30 31" fill="none" xmlns="http://www.w3.org/2000/svg">
<g clip-path="url(#clip0_4805_54936)">
<path d="M22.0312 11.5813C17.6694 11.5813 14.1211 15.1295 14.1211 19.4913C14.1211 23.8532 17.6693 27.4014 22.0311 27.4014C26.393 27.4014 29.9998 23.8532 29.9998 19.4913C29.9998 15.1295 26.393 11.5813 22.0312 11.5813ZM22.9332 23.727C22.9256 23.7298 22.9176 23.7285 22.91 23.7312V24.7647C22.91 25.2505 22.5169 25.6436 22.0311 25.6436C21.5453 25.6436 21.1522 25.2505 21.1522 24.7647V23.7252C20.5733 23.5296 20.0187 23.1585 19.5445 22.5932C19.2321 22.2216 19.2802 21.6671 19.6527 21.3556C20.0244 21.0431 20.5805 21.0912 20.8904 21.4637C21.3555 22.0173 21.8817 22.237 22.3315 22.0757C22.6774 21.9495 22.91 21.6174 22.91 21.2492C22.91 20.7642 22.516 20.3702 22.0311 20.3702C20.5771 20.3702 19.3944 19.1875 19.3944 17.7336C19.3944 16.6719 20.0261 15.7183 21.0037 15.3046C21.0521 15.2841 21.1034 15.2853 21.1522 15.2678V14.218C21.1522 13.7322 21.5453 13.3391 22.0311 13.3391C22.5169 13.3391 22.91 13.7322 22.91 14.218V15.2694C23.3651 15.4232 23.8089 15.6676 24.2052 16.0514C24.5537 16.3887 24.5623 16.9449 24.2241 17.2942C23.8867 17.6426 23.3297 17.6504 22.9812 17.3131C22.5538 16.8985 22.0809 16.756 21.6895 16.9234C21.3633 17.0616 21.1522 17.3792 21.1522 17.7336C21.1522 18.2186 21.5462 18.6125 22.0311 18.6125C23.485 18.6125 24.6677 19.7953 24.6677 21.2492C24.6679 22.3538 23.9709 23.3494 22.9332 23.727Z" fill="#A4837F"/>
<path d="M0.878906 20.3704C0.393105 20.3704 0 20.7635 0 21.2493V30.0968C0 30.5826 0.393105 30.9757 0.878906 30.9757H3.51557V20.3704H0.878906Z" fill="#A4837F"/>
<path d="M20.8448 6.4614L14.6925 1.18802C14.3647 0.904775 13.8772 0.904775 13.5493 1.18802L7.39704 6.4614C7.11725 6.69999 7.01682 7.08794 7.14467 7.433C7.2717 7.77806 7.60042 8.00722 7.96868 8.00722H10.6053C10.6053 15.6056 10.6053 23.3768 10.6053 30.9757C12.8695 30.9757 14.4348 30.9757 16.7576 30.9757C17.2434 30.9757 17.6365 30.5826 17.6365 30.0968V28.092C14.511 26.4884 12.3631 23.2394 12.3631 19.4915C12.3631 15.7436 14.5111 12.4946 17.6365 10.8909V8.00728H20.2732C20.6414 8.00728 20.9702 7.77812 21.0972 7.43306C21.2251 7.08794 21.1247 6.69999 20.8448 6.4614Z" fill="#A4837F"/>
<path d="M6.21094 13.3391C5.72514 13.3391 5.33203 13.7322 5.33203 14.218V20.3703V30.9755C6.61582 30.9755 7.60113 30.9755 8.8476 30.9755V13.3391H6.21094Z" fill="#A4837F"/>
</g>
<defs>
<clipPath id="clip0_4805_54936">
<rect width="30" height="30" fill="white" transform="translate(0 0.975586)"/>
</clipPath>
</defs>
</svg>
