<svg width="19" height="19" viewBox="0 0 19 19" fill="none" xmlns="http://www.w3.org/2000/svg">
<g clip-path="url(#clip0_4812_59126)">
<path d="M2.51402 10.0073L6.69902 12.1448C6.82277 12.2067 7.09277 12.3586 7.24464 12.1111C7.38527 11.8804 7.14902 11.6948 7.03652 11.6104L2.16527 7.88107C1.81089 7.59982 1.73214 7.05419 2.00214 6.68294C2.27214 6.29482 2.83464 6.18232 3.21714 6.44669L8.16714 9.99607C8.25714 10.0636 8.50464 10.2436 8.68464 10.0354C8.86464 9.83857 8.66777 9.61357 8.58902 9.52919L3.99339 4.68044C3.66152 4.31482 3.68402 3.70732 4.12839 3.29669C4.48277 2.97044 5.10714 2.95919 5.44464 3.30794L9.96152 8.01044C10.029 8.07794 10.2371 8.29169 10.4509 8.13419C10.6703 7.96544 10.5128 7.71794 10.4734 7.62232L7.66652 2.96482C7.47527 2.66669 7.46964 2.05357 7.98714 1.74419C8.52152 1.42919 9.03339 1.74419 9.23027 2.07607L12.3521 7.09357C12.7965 7.83607 13.494 8.46044 14.1128 8.75294C14.5909 8.97794 14.9621 8.69107 15.024 8.19044C15.1196 7.41419 15.2715 6.45232 15.5415 5.64232C15.8228 4.79294 16.8128 4.37107 17.6565 4.79857L17.3696 5.92919C17.0828 7.07669 17.049 8.28044 17.2459 9.45044C17.4146 10.4292 17.5834 11.6892 17.5609 12.8086C17.5328 14.4961 16.3965 15.2329 15.3784 16.1498C10.9853 20.1379 7.79027 14.7154 6.23214 13.9448L1.70402 11.4304C1.32152 11.2111 1.23714 10.6992 1.46214 10.3279C1.68152 9.96794 2.13152 9.81044 2.51402 10.0073Z" fill="#D19D86"/>
<path d="M16.3406 4.77591C16.4756 4.80403 16.605 4.84341 16.7344 4.90528L16.4475 6.03591C16.1606 7.18341 16.1269 8.38716 16.3237 9.55716C16.4925 10.5359 16.6613 11.7959 16.6388 12.9153C16.6106 14.6028 15.4744 15.3397 14.4562 16.2565C13.6237 17.0103 12.8363 17.4265 12.0938 17.6009C13.095 17.6178 14.1919 17.2297 15.3731 16.1553C16.3913 15.2384 17.5219 14.5015 17.5556 12.814C17.5781 11.689 17.4094 10.429 17.2406 9.45591C17.0381 8.28591 17.0775 7.08216 17.3644 5.93466L17.6512 4.80403C17.2181 4.58466 16.74 4.59591 16.3406 4.77591Z" fill="#BC8671"/>
<path d="M16.3285 9.00027C16.4972 9.97902 16.666 11.239 16.6435 12.3584C16.6154 14.0459 15.4791 14.7828 14.461 15.6996C12.706 17.2915 11.1422 17.3815 9.79785 16.8696C11.3279 17.7978 13.2066 18.1296 15.3779 16.1553C16.396 15.2384 17.5266 14.5015 17.5604 12.814C17.5829 11.689 17.4141 10.429 17.2454 9.4559C17.0485 8.2859 16.126 7.83027 16.3285 9.00027Z" fill="#BC8671"/>
<path d="M4.52223 3.40898L9.52848 8.56711C9.59598 8.63461 9.8041 8.84836 10.0179 8.69086C10.2372 8.52211 10.0797 8.27461 10.0404 8.17898L9.82098 7.81336L5.44473 3.31336C5.13535 2.99273 4.59535 2.97586 4.23535 3.21773C4.34223 3.26273 4.43785 3.32461 4.52223 3.40898Z" fill="#BC8671"/>
<path d="M2.24922 6.58135L7.73922 10.5132C7.84047 10.5864 8.11609 10.7832 8.31297 10.5526C8.48734 10.367 8.34672 10.1532 8.25109 10.0407L3.26734 6.46885C2.93547 6.23823 2.46297 6.27198 2.13672 6.51948C2.17609 6.54198 2.21547 6.55885 2.24922 6.58135Z" fill="#BC8671"/>
<path d="M8.30734 2.1772L11.4292 7.1947C11.8736 7.9372 12.5711 8.56157 13.1898 8.85407C13.5217 9.01157 13.803 8.91032 13.9661 8.66845C13.3867 8.35345 12.768 7.7797 12.3517 7.09345L9.22984 2.07595C9.03297 1.74407 8.52109 1.42907 7.98672 1.74407C7.95297 1.76095 7.93047 1.78345 7.90234 1.80595C8.07672 1.90157 8.22297 2.03657 8.30734 2.1772Z" fill="#BC8671"/>
<path d="M6.38414 12.668C6.52477 12.7411 6.84539 12.9155 7.01977 12.6286C7.08727 12.5161 7.07039 12.4205 7.03102 12.3361L2.56477 10.0524C2.21039 9.87236 1.81664 9.95111 1.54102 10.193L6.38414 12.668Z" fill="#BC8671"/>
<path d="M12.172 17.8881C10.147 17.8881 8.49886 16.3243 7.35136 15.2387C6.85636 14.7662 6.42323 14.3612 6.10823 14.2037L1.56886 11.6837C1.33261 11.5487 1.16386 11.3293 1.09636 11.0593C1.01761 10.7668 1.06823 10.4518 1.22011 10.1874C1.51823 9.68119 2.12573 9.49556 2.63761 9.75431L6.82261 11.8918C6.86761 11.9143 6.97448 11.9649 7.00823 11.9649C6.99136 11.9481 6.94636 11.9031 6.86198 11.8356L1.99073 8.10619C1.51261 7.72369 1.41698 7.01494 1.76573 6.51994C1.94011 6.27244 2.21573 6.09244 2.53073 6.04181C2.83448 5.98556 3.13261 6.05306 3.36886 6.22181L8.32448 9.77119C8.42573 9.84994 8.46511 9.85556 8.47636 9.85556C8.47073 9.84994 8.45948 9.80494 8.38636 9.72619L3.78511 4.87744C3.33511 4.37119 3.39698 3.58931 3.93136 3.09431C4.40948 2.66119 5.20823 2.67244 5.64136 3.11681L10.1582 7.81931C10.237 7.89806 10.2707 7.90931 10.2876 7.91494C10.282 7.88681 10.2426 7.80806 10.2314 7.77994L7.41886 3.11681C7.26698 2.88619 7.21636 2.54869 7.28948 2.24494C7.36261 1.93556 7.55386 1.68244 7.83511 1.51369C8.47073 1.13681 9.16261 1.43494 9.46636 1.94119L12.5826 6.95869C12.9764 7.61681 13.6232 8.22431 14.2251 8.51681C14.3095 8.55619 14.4389 8.58994 14.5401 8.53369C14.6414 8.47744 14.7145 8.34806 14.737 8.16806C14.827 7.47056 14.9732 6.43556 15.2657 5.56931C15.4232 5.08556 15.7889 4.69744 16.267 4.50056C16.7507 4.30369 17.302 4.32619 17.7801 4.56244C17.8982 4.62431 17.9601 4.75369 17.9264 4.88306L17.6395 6.01369C17.3639 7.11619 17.3245 8.26369 17.5214 9.41681C17.752 10.7387 17.8589 11.8862 17.842 12.8312C17.8139 14.4231 16.8745 15.2387 15.9632 16.0318C15.8339 16.1443 15.6989 16.2624 15.5695 16.3806C14.3545 17.4718 13.2126 17.8881 12.172 17.8881ZM2.15948 10.2043C1.97948 10.2043 1.81073 10.2999 1.70948 10.4743V10.4799C1.63073 10.6093 1.60823 10.7724 1.64198 10.9187C1.66448 11.0031 1.72073 11.1212 1.84448 11.1943L6.36698 13.7087C6.74948 13.8943 7.20511 14.3274 7.73386 14.8337C9.52823 16.5324 11.9807 18.8612 15.187 15.9531C15.322 15.8293 15.457 15.7168 15.592 15.5987C16.4807 14.8224 17.2514 14.1587 17.2795 12.8143C17.2964 11.9087 17.1895 10.7949 16.9701 9.50681C16.7564 8.27494 16.8014 7.04869 17.0939 5.86744L17.3189 4.97306C17.0432 4.88869 16.7507 4.89994 16.4807 5.01244C16.1545 5.14744 15.907 5.41181 15.8001 5.73806C15.5245 6.56494 15.3782 7.55494 15.2939 8.22994C15.2489 8.58431 15.0745 8.87119 14.8157 9.01744C14.5739 9.15244 14.2757 9.15244 13.9889 9.01744C13.2801 8.67994 12.5601 7.99931 12.1101 7.24556L8.98823 2.22806C8.89823 2.08181 8.55511 1.73306 8.12761 1.99181C7.97573 2.08181 7.88011 2.21119 7.84073 2.36869C7.79573 2.54869 7.84073 2.72306 7.89698 2.81306L10.7095 7.47619C10.957 7.96556 10.7939 8.21869 10.6195 8.35369C10.4676 8.46619 10.1582 8.60119 9.76448 8.21306L5.24198 3.50494C5.01698 3.27994 4.56698 3.27994 4.31948 3.50494C3.97636 3.82556 3.98761 4.25869 4.20136 4.49494L8.79136 9.33244C9.13448 9.69244 9.06698 10.0299 8.88698 10.2268C8.80823 10.3168 8.49886 10.6037 7.99261 10.2212L3.04261 6.67744C2.93011 6.59869 2.78386 6.56494 2.62636 6.59306C2.46323 6.62119 2.31698 6.71119 2.22698 6.84056C2.04698 7.09369 2.09761 7.47056 2.33386 7.66181L7.19948 11.3856C7.64948 11.7399 7.59886 12.0549 7.47511 12.2518C7.34573 12.4656 7.08136 12.6624 6.56948 12.3924L2.37886 10.2493C2.31136 10.2212 2.23823 10.2043 2.15948 10.2043Z" fill="#455A64"/>
<path d="M4.9271 16.8478C3.2846 16.8478 1.76023 15.914 1.01773 14.4347C0.950227 14.2997 1.00648 14.1309 1.1471 14.0578C1.28773 13.9903 1.45648 14.0465 1.52398 14.1815C2.18773 15.4978 3.56585 16.3247 5.0396 16.2797C5.1971 16.2853 5.32648 16.3978 5.32648 16.5553C5.3321 16.7128 5.20835 16.8422 5.05085 16.8422C5.01148 16.8478 4.9721 16.8478 4.9271 16.8478Z" fill="#455A64"/>
<path d="M4.89926 15.4523C4.88801 15.4523 4.88238 15.4523 4.87113 15.4523C3.79113 15.3454 2.82926 14.7154 2.30613 13.7648C2.23301 13.6298 2.27801 13.4554 2.41863 13.3823C2.55363 13.3092 2.72801 13.3542 2.80113 13.4948C3.23426 14.2823 4.03301 14.8054 4.92738 14.8954C5.07926 14.9123 5.19738 15.0473 5.18051 15.2048C5.16363 15.3454 5.03988 15.4523 4.89926 15.4523Z" fill="#455A64"/>
<path d="M14.3546 5.21477C14.2139 5.21477 14.0902 5.10789 14.0733 4.96164C13.9158 3.49914 12.909 2.24477 11.514 1.76664C11.3677 1.71602 11.289 1.55852 11.3396 1.41227C11.3902 1.26602 11.5477 1.18727 11.6939 1.23789C13.2914 1.78352 14.4446 3.22352 14.6302 4.90539C14.6471 5.05727 14.5346 5.19789 14.3827 5.21477C14.3771 5.21477 14.3658 5.21477 14.3546 5.21477Z" fill="#455A64"/>
<path d="M12.9878 5.49598C12.8528 5.49598 12.7291 5.39473 12.7122 5.2541C12.5772 4.36535 12.0147 3.59473 11.2047 3.20098C11.0641 3.13348 11.0078 2.96473 11.0753 2.8241C11.1428 2.68348 11.3116 2.62723 11.4522 2.69473C12.4253 3.17285 13.106 4.09535 13.2691 5.16973C13.2916 5.3216 13.1847 5.46785 13.0328 5.49035C13.016 5.49035 13.0047 5.49598 12.9878 5.49598Z" fill="#455A64"/>
</g>
<defs>
<clipPath id="clip0_4812_59126">
<rect width="18" height="18" fill="white" transform="translate(0.5 0.613525)"/>
</clipPath>
</defs>
</svg>
