<svg width="120" height="88" viewBox="0 0 120 88" fill="none" xmlns="http://www.w3.org/2000/svg">
<rect width="120" height="87.0229" rx="4" fill="black" fill-opacity="0.5"/>
<path d="M60.8333 29.6097H53C50.1997 29.6097 48.7996 29.6097 47.73 30.1121C46.7892 30.554 46.0243 31.2592 45.545 32.1265C45 33.1125 45 34.4032 45 36.9847V49.891C45 52.4724 45 53.7632 45.545 54.7492C46.0243 55.6165 46.7892 56.3216 47.73 56.7636C48.7996 57.266 50.1997 57.266 53 57.266H68.3333C69.8833 57.266 70.6583 57.266 71.2941 57.1089C73.0196 56.6827 74.3673 55.4402 74.8296 53.8496C75 53.2634 75 52.549 75 51.1201M71.6667 37.292V28.0732M66.6667 32.6826H76.6667M57.5 38.0602C57.5 39.7573 56.0076 41.1331 54.1667 41.1331C52.3257 41.1331 50.8333 39.7573 50.8333 38.0602C50.8333 36.3631 52.3257 34.9873 54.1667 34.9873C56.0076 34.9873 57.5 36.3631 57.5 38.0602ZM64.9834 43.3121L50.8852 55.1273C50.0923 55.7918 49.6958 56.1241 49.6607 56.412C49.6303 56.6615 49.7341 56.9089 49.9386 57.0747C50.1746 57.266 50.7105 57.266 51.7821 57.266H67.4266C69.8252 57.266 71.0245 57.266 71.9665 56.8945C73.1491 56.4281 74.0912 55.5596 74.597 54.4695C75 53.6011 75 52.4955 75 50.2843C75 49.5403 75 49.1683 74.9118 48.8218C74.8009 48.3864 74.5883 47.9786 74.2888 47.6268C74.0504 47.3469 73.7353 47.1145 73.1051 46.6497L68.443 43.2114C67.8123 42.7463 67.4969 42.5137 67.1497 42.4316C66.8436 42.3593 66.5214 42.3686 66.2209 42.4586C65.8799 42.5607 65.5811 42.8112 64.9834 43.3121Z" stroke="white" stroke-width="3.33333" stroke-linecap="round" stroke-linejoin="round"/>
</svg>
