<svg width="23" height="23" viewBox="0 0 23 23" fill="none" xmlns="http://www.w3.org/2000/svg">
<path d="M7.48615 11.0719C7.28666 11.0725 7.09141 11.1295 6.92298 11.2364C6.75455 11.3433 6.61982 11.4957 6.5344 11.676C6.44897 11.8563 6.41632 12.057 6.44024 12.2551C6.46416 12.4531 6.54366 12.6404 6.66955 12.7951L9.35319 16.0826C9.44888 16.2014 9.57153 16.2957 9.71096 16.3576C9.8504 16.4195 10.0026 16.4472 10.1549 16.4385C10.4806 16.421 10.7747 16.2467 10.9622 15.9602L16.5368 6.98229C16.5377 6.9808 16.5387 6.97931 16.5397 6.97784C16.592 6.89753 16.575 6.73837 16.467 6.63839C16.4374 6.61093 16.4024 6.58984 16.3643 6.5764C16.3262 6.56297 16.2857 6.55748 16.2454 6.56028C16.2051 6.56308 16.1658 6.5741 16.1299 6.59267C16.094 6.61123 16.0622 6.63695 16.0367 6.66824C16.0347 6.6707 16.0326 6.67312 16.0305 6.67551L10.4084 13.0276C10.387 13.0518 10.361 13.0715 10.332 13.0855C10.3029 13.0996 10.2713 13.1077 10.2391 13.1094C10.2069 13.1112 10.1746 13.1065 10.1442 13.0957C10.1138 13.0848 10.0858 13.0681 10.062 13.0464L8.19611 11.3484C8.00232 11.1708 7.74904 11.0721 7.48615 11.0719Z" fill="black"/>
<rect x="0.442308" y="0.442308" width="22.1154" height="22.1154" stroke="black" stroke-width="0.884615"/>
</svg>
