<svg width="11" height="11" viewBox="0 0 11 11" fill="none" xmlns="http://www.w3.org/2000/svg">
<g id="7-Check">
<path id="Vector" d="M1.48615 5.0944C1.28666 5.09496 1.09141 5.15198 0.922979 5.25888C0.754548 5.36578 0.619825 5.51818 0.534395 5.69846C0.448966 5.87873 0.416321 6.07951 0.440238 6.27756C0.464156 6.47561 0.543658 6.66284 0.669546 6.8176L3.35319 10.1051C3.44888 10.2239 3.57153 10.3181 3.71096 10.38C3.8504 10.4419 4.00258 10.4697 4.15489 10.4609C4.48062 10.4434 4.7747 10.2692 4.9622 9.98267L10.5368 1.00475C10.5377 1.00326 10.5387 1.00177 10.5397 1.0003C10.592 0.919989 10.575 0.760833 10.467 0.660849C10.4374 0.633392 10.4024 0.612298 10.3643 0.598865C10.3262 0.585432 10.2857 0.579944 10.2454 0.582741C10.2051 0.585538 10.1658 0.596559 10.1299 0.615126C10.094 0.633693 10.0622 0.659413 10.0367 0.690702C10.0347 0.693162 10.0326 0.695585 10.0305 0.697971L4.4084 7.05008C4.38701 7.07426 4.36103 7.09394 4.33196 7.10798C4.3029 7.12203 4.27134 7.13016 4.2391 7.1319C4.20687 7.13365 4.17462 7.12897 4.14421 7.11814C4.1138 7.10731 4.08585 7.09055 4.06197 7.06882L2.19611 5.37087C2.00232 5.19323 1.74904 5.0946 1.48615 5.0944Z" fill="black"/>
</g>
</svg>
