<svg width="29" height="28" viewBox="0 0 29 28" fill="none" xmlns="http://www.w3.org/2000/svg">
<path d="M4.27344 17.7975V22.89C4.27384 23.2443 4.41479 23.5841 4.66536 23.8346C4.91592 24.0852 5.25565 24.2261 5.61 24.2265H23.39C23.7444 24.2261 24.0841 24.0852 24.3346 23.8346C24.5852 23.5841 24.7262 23.2443 24.7266 22.89V17.7975C24.7262 17.4431 24.5852 17.1034 24.3346 16.8528C24.0841 16.6023 23.7444 16.4613 23.39 16.4609H23.3813C23.7691 15.4169 23.9668 14.3119 23.9651 13.1983C23.9663 10.6987 22.9745 8.30098 21.2078 6.53266C19.4412 4.76433 17.0444 3.77023 14.5448 3.76904C12.0452 3.76785 9.64756 4.75967 7.87924 6.52631C6.11092 8.29295 5.11681 10.6897 5.11563 13.1893V13.1972C5.11388 14.3112 5.31161 15.4166 5.69947 16.4609H5.61C5.25565 16.4613 4.91592 16.6023 4.66536 16.8528C4.41479 17.1034 4.27384 17.4431 4.27344 17.7975ZM23.1863 12.8144H19.7671C19.7437 11.5743 19.5768 10.341 19.2696 9.13936C20.1952 9.01161 21.0818 8.84929 21.9088 8.65023C22.6845 9.90584 23.1245 11.3398 23.1863 12.8144ZM23.1914 13.58C23.1494 14.5697 22.9355 15.5445 22.5594 16.4609H19.4532C19.6452 15.5121 19.751 14.5479 19.7692 13.58H23.1914ZM21.4414 7.97079C20.6867 8.14229 19.8858 8.2847 19.0493 8.3967C18.5624 6.90286 17.8637 5.70957 17.0401 4.90982C18.7949 5.43774 20.3364 6.50965 21.4422 7.97079H21.4414ZM14.9226 4.57579C16.2745 4.80745 17.5163 6.25098 18.2756 8.48923C17.1841 8.60801 16.0606 8.67429 14.9226 8.68611V4.57579ZM14.9226 9.45567C16.1195 9.4443 17.315 9.37173 18.5044 9.23823C18.812 10.4063 18.9796 11.6067 19.0036 12.8144H14.9235L14.9226 9.45567ZM19.0043 13.5806C18.9852 14.5492 18.8735 15.5137 18.6707 16.4609H14.9244V13.5806H19.0043ZM14.1587 13.5806V16.4609H10.4067C10.2063 15.5134 10.0958 14.549 10.0767 13.5806H14.1587ZM10.0778 12.815C10.1022 11.6062 10.2705 10.4046 10.5791 9.23561C11.7676 9.36893 12.962 9.44143 14.1579 9.45283V12.8144L10.0778 12.815ZM14.1579 4.57186V8.69004C13.0204 8.67801 11.8942 8.61195 10.8025 8.49317C11.5613 6.25164 12.8047 4.80329 14.1579 4.57186ZM12.0402 4.91004C11.2163 5.70979 10.5181 6.90308 10.0312 8.39692C9.19466 8.28492 8.39381 8.14229 7.63913 7.97101C8.74469 6.51004 10.2858 5.4383 12.0402 4.91004ZM7.17188 8.65067C7.99897 8.84973 8.88556 9.01204 9.81131 9.13979C9.50417 10.3415 9.33724 11.5747 9.31388 12.8148H5.89503C5.95675 11.3403 6.39643 9.90635 7.17188 8.65067ZM9.31213 13.58C9.33038 14.5477 9.43514 15.5119 9.62516 16.4609H6.52153C6.1452 15.5446 5.93127 14.5697 5.88934 13.58H9.31213ZM6.26581 17.2265H23.39C23.5414 17.2267 23.6865 17.2869 23.7935 17.394C23.9006 17.501 23.9608 17.6461 23.9609 17.7975V22.89C23.9608 23.0413 23.9006 23.1865 23.7935 23.2935C23.6865 23.4005 23.5414 23.4607 23.39 23.4609H5.61C5.45863 23.4607 5.31351 23.4005 5.20648 23.2935C5.09944 23.1865 5.03924 23.0413 5.03906 22.89V17.7975C5.03924 17.6461 5.09944 17.501 5.20648 17.394C5.31351 17.2869 5.45863 17.2267 5.61 17.2265H6.26581Z" fill="black" fill-opacity="0.6"/>
<path d="M8.09988 22.172C8.17914 22.172 8.25643 22.1474 8.32112 22.1016C8.3858 22.0558 8.43469 21.9911 8.46103 21.9163L9.11728 20.0521L9.77353 21.9163C9.79991 21.9909 9.84879 22.0556 9.91343 22.1013C9.97807 22.147 10.0553 22.1716 10.1345 22.1716C10.2136 22.1716 10.2909 22.147 10.3555 22.1013C10.4202 22.0556 10.469 21.9909 10.4954 21.9163L11.5124 19.026C11.5291 18.9786 11.5363 18.9283 11.5335 18.8782C11.5308 18.828 11.5182 18.7788 11.4965 18.7335C11.4748 18.6882 11.4444 18.6476 11.407 18.614C11.3696 18.5805 11.3259 18.5546 11.2785 18.5379C11.2311 18.5212 11.1809 18.514 11.1307 18.5168C11.0806 18.5195 11.0314 18.5321 10.9861 18.5538C10.9408 18.5755 10.9002 18.6059 10.8666 18.6433C10.8331 18.6807 10.8072 18.7244 10.7905 18.7718L10.1343 20.636L9.478 18.7718C9.45162 18.6971 9.40275 18.6325 9.3381 18.5868C9.27346 18.5411 9.19624 18.5165 9.11706 18.5165C9.03789 18.5165 8.96067 18.5411 8.89603 18.5868C8.83138 18.6325 8.78251 18.6971 8.75613 18.7718L8.09988 20.636L7.44363 18.7718C7.428 18.723 7.40275 18.6779 7.36939 18.6391C7.33602 18.6003 7.29521 18.5686 7.24938 18.5458C7.20354 18.523 7.1536 18.5097 7.10251 18.5066C7.05143 18.5034 7.00023 18.5106 6.95196 18.5276C6.90368 18.5446 6.8593 18.5711 6.82145 18.6055C6.7836 18.64 6.75304 18.6817 6.73157 18.7281C6.71011 18.7746 6.69818 18.8249 6.6965 18.8761C6.69481 18.9272 6.7034 18.9782 6.72175 19.026L7.73872 21.9163C7.76509 21.991 7.81398 22.0558 7.87866 22.1015C7.94334 22.1473 8.02063 22.172 8.09988 22.172Z" fill="black" fill-opacity="0.6"/>
<path d="M13.5249 22.1718C13.6041 22.1717 13.6814 22.1471 13.746 22.1013C13.8107 22.0555 13.8595 21.9908 13.8858 21.9161L14.5421 20.0519L15.1983 21.9161C15.2247 21.9907 15.2736 22.0553 15.3382 22.1011C15.4029 22.1468 15.4801 22.1713 15.5593 22.1713C15.6384 22.1713 15.7157 22.1468 15.7803 22.1011C15.845 22.0553 15.8938 21.9907 15.9202 21.9161L16.9372 19.0257C16.9539 18.9783 16.9611 18.9281 16.9583 18.8779C16.9556 18.8277 16.943 18.7786 16.9213 18.7333C16.8996 18.6879 16.8692 18.6473 16.8318 18.6138C16.7944 18.5802 16.7507 18.5544 16.7033 18.5377C16.6559 18.521 16.6057 18.5138 16.5555 18.5165C16.5054 18.5192 16.4562 18.5318 16.4109 18.5535C16.3656 18.5752 16.325 18.6057 16.2914 18.6431C16.2579 18.6805 16.232 18.7241 16.2153 18.7715L15.5591 20.6357L14.9028 18.7715C14.8764 18.6969 14.8275 18.6322 14.7629 18.5865C14.6983 18.5408 14.621 18.5163 14.5419 18.5163C14.4627 18.5163 14.3855 18.5408 14.3208 18.5865C14.2562 18.6322 14.2073 18.6969 14.1809 18.7715L13.5247 20.6357L12.8684 18.7715C12.8528 18.7228 12.8276 18.6777 12.7942 18.6389C12.7608 18.6001 12.72 18.5683 12.6742 18.5456C12.6283 18.5228 12.5784 18.5095 12.5273 18.5063C12.4762 18.5032 12.425 18.5103 12.3768 18.5273C12.3285 18.5443 12.2841 18.5709 12.2463 18.6053C12.2084 18.6397 12.1778 18.6814 12.1564 18.7279C12.1349 18.7744 12.123 18.8247 12.1213 18.8758C12.1196 18.927 12.1282 18.9779 12.1466 19.0257L13.1635 21.9161C13.1899 21.9908 13.2388 22.0556 13.3035 22.1014C13.3683 22.1472 13.4456 22.1718 13.5249 22.1718Z" fill="black" fill-opacity="0.6"/>
<path d="M18.9487 22.172C19.028 22.172 19.1052 22.1474 19.1699 22.1016C19.2345 22.0558 19.2834 21.991 19.3097 21.9163L19.9659 20.0521L20.6222 21.9163C20.6485 21.9909 20.6974 22.0556 20.7621 22.1013C20.8267 22.147 20.9039 22.1716 20.9831 22.1716C21.0623 22.1716 21.1395 22.147 21.2041 22.1013C21.2688 22.0556 21.3177 21.9909 21.344 21.9163L22.361 19.026C22.3777 18.9786 22.3849 18.9283 22.3822 18.8782C22.3795 18.828 22.3669 18.7788 22.3452 18.7335C22.3234 18.6882 22.293 18.6476 22.2556 18.614C22.2182 18.5805 22.1746 18.5546 22.1272 18.5379C22.0798 18.5212 22.0295 18.514 21.9794 18.5168C21.9292 18.5195 21.88 18.5321 21.8347 18.5538C21.7894 18.5755 21.7488 18.6059 21.7152 18.6433C21.6817 18.6807 21.6558 18.7244 21.6391 18.7718L20.9829 20.636L20.3266 18.7718C20.3003 18.6971 20.2514 18.6325 20.1867 18.5868C20.1221 18.5411 20.0449 18.5165 19.9657 18.5165C19.8865 18.5165 19.8093 18.5411 19.7447 18.5868C19.68 18.6325 19.6311 18.6971 19.6048 18.7718L18.9485 20.636L18.2923 18.7718C18.2766 18.723 18.2514 18.6779 18.218 18.6391C18.1847 18.6003 18.1438 18.5686 18.098 18.5458C18.0522 18.523 18.0022 18.5097 17.9511 18.5066C17.9001 18.5034 17.8489 18.5106 17.8006 18.5276C17.7523 18.5446 17.7079 18.5711 17.6701 18.6055C17.6322 18.64 17.6017 18.6817 17.5802 18.7281C17.5587 18.7746 17.5468 18.8249 17.5451 18.8761C17.5434 18.9272 17.552 18.9782 17.5704 19.026L18.5874 21.9163C18.6137 21.9911 18.6626 22.0558 18.7274 22.1017C18.7921 22.1475 18.8694 22.172 18.9487 22.172Z" fill="black" fill-opacity="0.6"/>
</svg>
