<svg width="27" height="26" viewBox="0 0 27 26" fill="none" xmlns="http://www.w3.org/2000/svg">
<path d="M23.1401 6.49997C23.2783 6.50016 23.4137 6.53803 23.5319 6.6095C23.6501 6.68097 23.7466 6.78334 23.8109 6.90557C23.8699 7.01403 23.9003 7.13572 23.8993 7.25917V18.7408C23.8993 18.9421 23.8193 19.1352 23.677 19.2776C23.5346 19.42 23.3415 19.5 23.1401 19.5H3.85854C3.65718 19.5 3.46408 19.42 3.3217 19.2776C3.17932 19.1352 3.09934 18.9421 3.09934 18.7408V7.25917C3.09834 7.13572 3.12876 7.01403 3.18774 6.90557C3.25207 6.78334 3.34854 6.68097 3.46674 6.6095C3.58494 6.53803 3.7204 6.50016 3.85854 6.49997H23.1401ZM23.1401 5.71997H3.85854C3.45031 5.71997 3.05881 5.88214 2.77016 6.17079C2.4815 6.45945 2.31934 6.85095 2.31934 7.25917V18.7408C2.32002 19.1488 2.48241 19.5399 2.77092 19.8284C3.05942 20.1169 3.45053 20.2793 3.85854 20.28H23.1401C23.5481 20.2793 23.9392 20.1169 24.2278 19.8284C24.5163 19.5399 24.6786 19.1488 24.6793 18.7408V7.25917C24.6793 6.85095 24.5172 6.45945 24.2285 6.17079C23.9399 5.88214 23.5484 5.71997 23.1401 5.71997Z" fill="black" fill-opacity="0.6"/>
<path d="M23.1404 6.49997C23.1884 6.50031 23.2362 6.50466 23.2834 6.51297L14.5552 13.4966C14.2548 13.7355 13.8822 13.8657 13.4983 13.8657C13.1144 13.8657 12.7419 13.7355 12.4414 13.4966L3.71582 6.51297C3.76304 6.50466 3.81088 6.50031 3.85882 6.49997H23.1404ZM23.1404 5.71997H3.85882C3.57926 5.72063 3.30513 5.79716 3.06565 5.9414C2.82617 6.08563 2.63033 6.29217 2.49902 6.53897L11.9552 14.105C12.3938 14.4552 12.9384 14.6459 13.4996 14.6459C14.0609 14.6459 14.6054 14.4552 15.044 14.105L24.5002 6.53897C24.3689 6.29217 24.1731 6.08563 23.9336 5.9414C23.6941 5.79716 23.42 5.72063 23.1404 5.71997Z" fill="black" fill-opacity="0.6"/>
<path d="M3.37243 20.168C3.27762 20.1701 3.18526 20.1378 3.11243 20.0771C3.07293 20.0444 3.04029 20.0043 3.01639 19.959C2.9925 19.9137 2.97784 19.8641 2.97324 19.8131C2.96865 19.762 2.97422 19.7106 2.98963 19.6618C3.00504 19.6129 3.02999 19.5676 3.06303 19.5285L9.54743 11.757C9.5792 11.7148 9.61925 11.6794 9.66513 11.653C9.71101 11.6267 9.76177 11.61 9.81431 11.6039C9.86686 11.5978 9.92009 11.6025 9.97078 11.6176C10.0215 11.6327 10.0685 11.658 10.1092 11.6919C10.1498 11.7258 10.183 11.7676 10.207 11.8148C10.2309 11.862 10.245 11.9135 10.2484 11.9663C10.2518 12.0191 10.2444 12.072 10.2267 12.1219C10.209 12.1717 10.1814 12.2174 10.1454 12.2562L3.67143 20.0198C3.63542 20.0649 3.58999 20.1015 3.53834 20.1271C3.48669 20.1527 3.43006 20.1666 3.37243 20.168Z" fill="black" fill-opacity="0.6"/>
<path d="M23.6398 20.168C23.58 20.1686 23.5208 20.1555 23.4667 20.1298C23.4127 20.1042 23.3652 20.0666 23.3278 20.0198L16.8538 12.2562C16.8179 12.2174 16.7902 12.1717 16.7725 12.1219C16.7548 12.072 16.7474 12.0191 16.7508 11.9663C16.7542 11.9135 16.7683 11.862 16.7922 11.8148C16.8162 11.7676 16.8495 11.7258 16.8901 11.6919C16.9307 11.658 16.9778 11.6327 17.0284 11.6176C17.0791 11.6025 17.1324 11.5978 17.1849 11.6039C17.2375 11.61 17.2882 11.6267 17.3341 11.653C17.38 11.6794 17.42 11.7148 17.4518 11.757L23.9258 19.5284C23.9588 19.5676 23.9838 19.6129 23.9992 19.6618C24.0146 19.7106 24.0202 19.762 24.0156 19.8131C24.011 19.8641 23.9963 19.9137 23.9724 19.959C23.9485 20.0043 23.9159 20.0444 23.8764 20.077C23.8098 20.1327 23.7266 20.1647 23.6398 20.168Z" fill="black" fill-opacity="0.6"/>
</svg>
