<svg width="30" height="30" viewBox="0 0 30 30" fill="none" xmlns="http://www.w3.org/2000/svg">
<path d="M23.0795 14.626H14.999C14.7563 14.626 14.5596 14.8227 14.5596 15.0654C14.5596 15.3082 14.7563 15.5049 14.999 15.5049H23.0795C23.3222 15.5049 23.519 15.3082 23.519 15.0654C23.519 14.8227 23.3222 14.626 23.0795 14.626Z" fill="black" fill-opacity="0.6"/>
<path d="M23.0795 17.1506H14.999C14.7563 17.1506 14.5596 17.3473 14.5596 17.5901C14.5596 17.8328 14.7563 18.0295 14.999 18.0295H23.0795C23.3222 18.0295 23.519 17.8328 23.519 17.5901C23.519 17.3473 23.3222 17.1506 23.0795 17.1506Z" fill="black" fill-opacity="0.6"/>
<path d="M16.5674 8.44079C16.5674 7.61438 15.8636 6.94214 14.9985 6.94214C14.1335 6.94214 13.4297 7.61444 13.4297 8.44079C13.4297 9.26685 14.1335 9.93886 14.9985 9.93886C15.8636 9.93886 16.5674 9.26679 16.5674 8.44079ZM14.3086 8.44079C14.3086 8.09907 14.6181 7.82105 14.9985 7.82105C15.379 7.82105 15.6885 8.09907 15.6885 8.44079C15.6885 8.78222 15.379 9.05995 14.9985 9.05995C14.6181 9.05995 14.3086 8.78222 14.3086 8.44079Z" fill="black" fill-opacity="0.6"/>
<path d="M23.4124 9.94741H19.9113C19.8853 8.67376 19.377 7.48026 18.4734 6.57669C17.5459 5.64856 16.3121 5.13745 14.9992 5.13745C12.3246 5.13745 10.1423 7.28579 10.0871 9.94741H6.58596C4.84074 9.94741 3.4209 11.3673 3.4209 13.1125V21.6805C3.4209 23.4351 4.84836 24.8626 6.60301 24.8626H23.3955C25.1501 24.8626 26.5776 23.4351 26.5776 21.6805V13.1125C26.5776 11.3673 25.1577 9.94741 23.4124 9.94741ZM25.6987 21.6805C25.6987 22.9504 24.6655 23.9836 23.3954 23.9836H6.60295C5.33299 23.9836 4.29975 22.9504 4.29975 21.6805V13.1125C4.29975 11.8518 5.32531 10.8263 6.5859 10.8263H10.5254C10.7681 10.8263 10.9648 10.6296 10.9648 10.3868V10.0506C10.9648 7.82608 12.7746 6.0163 14.9991 6.0163C16.0771 6.0163 17.0902 6.43595 17.8518 7.19802C18.6138 7.96003 19.0334 8.97312 19.0334 10.0506V10.3868C19.0334 10.6296 19.2302 10.8263 19.4729 10.8263H23.4124C24.673 10.8263 25.6985 11.8518 25.6985 13.1125V21.6805H25.6987Z" fill="black" fill-opacity="0.6"/>
<path d="M11.3364 13.7378H7.35389C6.50668 13.7378 5.81738 14.4271 5.81738 15.2743V18.1168C5.81738 18.964 6.50668 19.6533 7.35389 19.6533H11.3364C12.1837 19.6533 12.8729 18.964 12.8729 18.1168V15.2743C12.8729 14.4271 12.1837 13.7378 11.3364 13.7378ZM11.994 18.1167C11.994 18.4793 11.699 18.7743 11.3364 18.7743H7.35383C6.99125 18.7743 6.69623 18.4794 6.69623 18.1167V15.2742C6.69623 14.9117 6.99125 14.6166 7.35383 14.6166H11.3364C11.699 14.6166 11.994 14.9116 11.994 15.2742V18.1167Z" fill="black" fill-opacity="0.6"/>
</svg>
