<svg width="21" height="20" viewBox="0 0 21 20" fill="none" xmlns="http://www.w3.org/2000/svg">
<g clip-path="url(#clip0_4600_10942)">
<path d="M15.9782 16.9181H19.7713C20.1521 16.9181 20.461 16.6094 20.461 16.2285V3.8147C20.461 3.43369 20.1521 3.125 19.7713 3.125H1.15064C0.769623 3.125 0.460938 3.43384 0.460938 3.8147V16.2285C0.460938 16.6094 0.769623 16.9181 1.15064 16.9181H15.9782Z" fill="#4C8056"/>
<path d="M6.66792 3.125V16.9181H1.15064C0.770081 16.917 0.462006 16.6089 0.460938 16.2285V3.8147C0.462006 3.43414 0.770081 3.12607 1.15064 3.125H6.66792Z" fill="#4C8056"/>
<path d="M6.66797 3.125H14.2542V16.9181H6.66797V3.125Z" fill="#E6E7E8"/>
</g>
<defs>
<clipPath id="clip0_4600_10942">
<rect width="20" height="20" fill="white" transform="translate(0.5)"/>
</clipPath>
</defs>
</svg>
