<svg width="23" height="14" viewBox="0 0 23 14" fill="none" xmlns="http://www.w3.org/2000/svg">
<path d="M4.44931 23H18.55C19.3923 23 20.0774 22.3148 20.0774 21.4726V10.0734C20.0774 9.23118 19.3923 8.54598 18.55 8.54598H17.7097V6.21C17.7097 2.78579 14.9239 0 11.4997 0C8.07545 0 5.28966 2.78579 5.28966 6.21V8.54598H4.44931C3.60707 8.54598 2.92188 9.23118 2.92188 10.0734V21.4726C2.92188 22.3148 3.60711 23 4.44931 23ZM6.36779 6.21C6.36779 3.38028 8.66994 1.07812 11.4997 1.07812C14.3294 1.07812 16.6315 3.38028 16.6315 6.21V8.54598H6.36779V6.21ZM4 10.0734C4 9.82567 4.20156 9.62411 4.44931 9.62411H18.55C18.7978 9.62411 18.9993 9.82567 18.9993 10.0734V21.4726C18.9993 21.7203 18.7978 21.9219 18.55 21.9219H4.44931C4.20156 21.9219 4 21.7203 4 21.4726V10.0734ZM10.9606 16.8536V18.4886C10.9606 18.7863 11.202 19.0276 11.4997 19.0276C11.7974 19.0276 12.0387 18.7863 12.0387 18.4886V16.8536C12.9927 16.6126 13.7008 15.7473 13.7008 14.7195C13.7008 13.5057 12.7134 12.5183 11.4997 12.5183C10.2859 12.5183 9.29849 13.5057 9.29849 14.7195C9.29849 15.7472 10.0067 16.6125 10.9606 16.8536ZM11.4997 13.5964C12.1189 13.5964 12.6227 14.1002 12.6227 14.7195C12.6227 15.3387 12.1189 15.8425 11.4997 15.8425C10.8804 15.8425 10.3766 15.3387 10.3766 14.7195C10.3766 14.1002 10.8804 13.5964 11.4997 13.5964Z" fill="black" fill-opacity="0.6"/>
</svg>
