<svg width="26" height="26" viewBox="0 0 26 26" fill="none" xmlns="http://www.w3.org/2000/svg">
<path d="M13.051 2.03151C12.7701 2.02948 12.5411 2.25545 12.5391 2.53577C12.537 2.81608 12.7625 3.0451 13.0433 3.04713C13.3236 3.04917 13.5527 2.8237 13.5547 2.54338C13.5567 2.26307 13.3313 2.03405 13.051 2.03151Z" fill="black" fill-opacity="0.6"/>
<path d="M13.0267 5.07822C11.066 5.0643 9.46024 6.64609 9.44542 8.6062C9.43064 10.5662 11.0133 12.1727 12.9734 12.1875C12.9825 12.1876 12.9915 12.1876 13.0006 12.1876C14.9482 12.1876 16.54 10.6105 16.5547 8.65952C16.5695 6.69961 14.9869 5.09299 13.0267 5.07822ZM13.0005 11.172C12.9941 11.172 12.9874 11.172 12.981 11.1719C11.5809 11.1614 10.4504 10.0138 10.461 8.61382C10.4715 7.22012 11.6084 6.09369 12.9996 6.09369C13.006 6.09369 13.0127 6.09374 13.0191 6.09379C14.4192 6.10435 15.5497 7.25191 15.5391 8.6519C15.5286 10.0456 14.3917 11.172 13.0005 11.172Z" fill="black" fill-opacity="0.6"/>
<path d="M15.2167 2.41679C14.9525 2.32304 14.6621 2.46142 14.5684 2.72579C14.4747 2.99016 14.6131 3.28037 14.8774 3.37412C17.1141 4.16686 18.6048 6.29719 18.587 8.67513C18.5849 8.95554 18.8105 9.18462 19.091 9.18675C19.0922 9.18675 19.0935 9.18675 19.0949 9.18675C19.3735 9.18675 19.6004 8.96189 19.6026 8.68275C19.6237 5.87215 17.8611 3.35406 15.2167 2.41679Z" fill="black" fill-opacity="0.6"/>
<path d="M16.116 19.1162C19.4936 14.7686 21.6044 12.5015 21.6329 8.69773C21.6687 3.91194 17.7848 0 12.9994 0C8.26982 0 4.40343 3.83034 4.36748 8.56824C4.33843 12.4751 6.48846 14.7391 9.88939 19.1155C6.50608 19.6211 4.36748 20.8915 4.36748 22.4454C4.36748 23.4862 5.32958 24.4202 7.07661 25.0753C8.66673 25.6716 10.7704 26 13.0002 26C15.23 26 17.3337 25.6716 18.9238 25.0753C20.6708 24.4202 21.6329 23.4862 21.6329 22.4453C21.6329 20.8923 19.4963 19.6222 16.116 19.1162ZM5.38305 8.5759C5.41474 4.39513 8.82598 1.01563 12.9995 1.01563C17.2224 1.01563 20.6488 4.46815 20.6174 8.69016C20.5903 12.3024 18.3518 14.5285 14.778 19.1874C14.1405 20.018 13.5551 20.8032 13.001 21.5714C12.4485 20.8028 11.8747 20.0316 11.2277 19.1871C7.50617 14.3332 5.35553 12.2753 5.38305 8.5759ZM13.0002 24.9844C8.64058 24.9844 5.38305 23.6439 5.38305 22.4454C5.38305 21.5565 7.33042 20.4336 10.6047 20.0448C11.3285 20.9944 11.963 21.8572 12.5854 22.7384C12.6805 22.8729 12.835 22.9531 12.9997 22.9532C12.9999 22.9532 13.0001 22.9532 13.0002 22.9532C13.1648 22.9532 13.3193 22.8733 13.4145 22.739C14.031 21.8693 14.6829 20.9853 15.4005 20.0453C18.6717 20.4346 20.6174 21.5571 20.6174 22.4454C20.6173 23.6439 17.3598 24.9844 13.0002 24.9844Z" fill="black" fill-opacity="0.6"/>
</svg>
