<svg width="27" height="26" viewBox="0 0 27 26" fill="none" xmlns="http://www.w3.org/2000/svg">
<g clip-path="url(#clip0_4600_10940)">
<path d="M13.5 0C6.33177 0 0.5 5.83177 0.5 13C0.5 20.1682 6.33177 26 13.5 26C20.6682 26 26.5 20.1682 26.5 13C26.5 5.83177 20.6682 0 13.5 0ZM13.5 24.9844C6.89179 24.9844 1.51562 19.6082 1.51562 13C1.51562 6.39179 6.89179 1.01562 13.5 1.01562C20.1082 1.01562 25.4844 6.39179 25.4844 13C25.4844 19.6082 20.1082 24.9844 13.5 24.9844ZM17.9418 13.5175C17.7019 13.2783 17.377 13.144 17.0383 13.144C16.6996 13.144 16.3747 13.2783 16.1348 13.5175L14.9916 14.6605C14.9821 14.6695 14.9695 14.6745 14.9564 14.6745C14.9432 14.6745 14.9306 14.6695 14.9211 14.6605L11.9292 11.6687C11.9201 11.6591 11.9151 11.6465 11.9151 11.6334C11.9151 11.6202 11.9201 11.6076 11.9292 11.5981L13.0723 10.4549C13.3115 10.2151 13.4459 9.89022 13.4459 9.55147C13.4459 9.21272 13.3115 8.8878 13.0723 8.648L10.9425 6.51813C10.7026 6.27887 10.3777 6.1445 10.039 6.1445C9.7002 6.1445 9.37527 6.27887 9.13545 6.51813L7.63629 8.01734C7.00111 8.65565 6.64453 9.51951 6.64453 10.42C6.64453 11.3205 7.00111 12.1844 7.63629 12.8227L13.6774 18.8638C14.3157 19.4989 15.1795 19.8555 16.08 19.8555C16.9805 19.8555 17.8443 19.4989 18.4827 18.8638L19.9819 17.3645C20.2211 17.1247 20.3555 16.7998 20.3555 16.461C20.3555 16.1223 20.2211 15.7974 19.9819 15.5575L17.9418 13.5175ZM19.2637 16.6465L17.7646 18.1456C17.3167 18.5903 16.7112 18.8399 16.08 18.8399C15.4489 18.8399 14.8433 18.5903 14.3955 18.1456L8.35439 12.1045C7.90971 11.6567 7.66016 11.0511 7.66016 10.42C7.66016 9.78888 7.90971 9.18336 8.35439 8.73549L9.8536 7.23633C9.90279 7.18722 9.96945 7.15964 10.039 7.15964C10.1085 7.15964 10.1751 7.18722 10.2243 7.23633L12.3542 9.36614C12.4032 9.41535 12.4308 9.48201 12.4308 9.5515C12.4308 9.62099 12.4032 9.68764 12.3542 9.73685L11.2111 10.8799C11.0116 11.0799 10.8995 11.3509 10.8995 11.6334C10.8995 11.9159 11.0116 12.1868 11.2111 12.3868L14.203 15.3787C14.3018 15.4779 14.4192 15.5565 14.5485 15.6099C14.6778 15.6634 14.8164 15.6907 14.9564 15.6902C15.0963 15.6907 15.2349 15.6634 15.3642 15.6099C15.4936 15.5565 15.611 15.4779 15.7097 15.3787L16.8529 14.2356C16.9021 14.1865 16.9687 14.1589 17.0382 14.1589C17.1077 14.1589 17.1744 14.1865 17.2236 14.2356L19.2637 16.2757C19.3125 16.3251 19.3398 16.3917 19.3398 16.4611C19.3398 16.5305 19.3125 16.5971 19.2637 16.6465Z" fill="black" fill-opacity="0.6"/>
</g>
<defs>
<clipPath id="clip0_4600_10940">
<rect width="26" height="26" fill="white" transform="translate(0.5)"/>
</clipPath>
</defs>
</svg>
